# xmcd CD database file
#
# Track frame offsets:
#	150
#	11318
#	22296
#	32982
#	44586
#	57731
#	68275
#	77409
#	89281
#	100325
#	109400
#	119891
#	132715
#	146264
#	161062
#	173764
#	185124
#
# Disc length: 2594 seconds
#
# Revision: 0
# Processed by: cddbd v1.5.2PL0 Copyright (c) Steve Scherf et al.
# Submitted via: CDex 1.40Release
#
DISCID=f80a2011
DTITLE=Various Artist - This is DJs Choice - Vol. 2
DYEAR=2009
DGENRE=Blues
TTITLE0=i want to ramble - John Lee Hooker
TTITLE1=you'll be mine - Howling Wolf
TTITLE2=you ain't such a much - Blanche Thomas
TTITLE3=that's a pretty goog love - Big Maybelle
TTITLE4=love bandit - Cadets
TTITLE5=long lean daddy - Sarah Dean
TTITLE6=king kong - Big 'T' Tyler
TTITLE7=all night long - Joe Houston
TTITLE8=bring my cadillac back - Baker Knight
TTITLE9=voodoo voodoo - Jessie and The Orbits
TTITLE10=the man who counts - Jack Rabbit Slim
TTITLE11=soulful dress - Sugar Pie Desanto
TTITLE12=how do I let a good man down - Sharon Jones and The Dap-Kings
TTITLE13=come on train - Don Thomas
TTITLE14=beggin' - Timebox
TTITLE15=sensitive mind - General Assembly
TTITLE16=that's what I want - Syng McGowan
EXTD=YEAR: 2009 ID3G: 0
EXTT0=
EXTT1=
EXTT2=
EXTT3=
EXTT4=
EXTT5=
EXTT6=
EXTT7=
EXTT8=
EXTT9=
EXTT10=
EXTT11=
EXTT12=
EXTT13=
EXTT14=
EXTT15=
EXTT16=
PLAYORDER=
